<svg width="600" height="197" viewBox="0 0 600 197" fill="none" xmlns="http://www.w3.org/2000/svg">
<path d="M145.477 99.9892C139.924 103.482 138.004 110.009 128.205 110.009C118.405 110.009 117.968 103.876 110.82 99.9892C117.729 94.2636 122.135 88.5379 128.205 94.2636C133.902 88.5379 138.568 94.2636 145.477 99.9892Z" fill="#D51D28"/>
<path fill-rule="evenodd" clip-rule="evenodd" d="M98.9277 45.26C98.3146 46.4644 97.7479 47.8002 97.2287 49.2796C96.6003 51.0707 97.0865 53.551 97.6802 56.5796C98.8423 62.5071 100.416 70.5349 94.8503 79.6061C108.245 74.0777 115.641 64.4056 116.845 57.268C117.267 62.0211 115.535 68.494 110.65 76.4553C122.28 71.6553 129.387 63.7315 131.847 57.055C131.699 61.5682 129.834 67.35 125.6 74.2497C136.978 69.5537 144.028 61.8677 146.631 55.285C148.374 58.5178 149.124 62.5154 145.307 68.7358C159.291 62.9644 166.736 52.6768 167.425 45.4715H98.9277V45.26Z" fill="black"/>
<path d="M223.728 62.74V101.04H216.478V83.49L204.478 100.54H204.378L192.828 84.59V101.04H185.828V62.74H185.878L204.528 89.19L223.628 62.74H223.728ZM253.94 93.84H241.74L238.74 101.04H231.59L248.19 62.79H248.59L265.19 101.04H256.79L253.94 93.84ZM251.54 87.74L247.99 78.79L244.29 87.74H251.54ZM292.904 101.04L285.154 89.34H280.304V101.04H273.054V64.24H284.204C288.771 64.24 292.304 65.3567 294.804 67.59C297.338 69.79 298.604 72.8067 298.604 76.64C298.604 78.9067 298.121 81.04 297.154 83.04C296.221 85.0067 294.771 86.5567 292.804 87.69L301.354 101.04H292.904ZM280.304 82.34H285.454C287.421 82.34 288.854 81.7733 289.754 80.64C290.654 79.4733 291.104 78.2233 291.104 76.89C291.104 75.5567 290.721 74.29 289.954 73.09C289.188 71.8567 287.704 71.24 285.504 71.24H280.304V82.34ZM336.162 97.99C335.229 98.7567 333.746 99.5233 331.712 100.29C329.679 101.057 327.462 101.44 325.062 101.44C321.229 101.44 317.896 100.607 315.062 98.94C312.229 97.2733 310.062 95.04 308.562 92.24C307.062 89.4067 306.312 86.3067 306.312 82.94C306.312 79.24 307.062 75.94 308.562 73.04C310.062 70.14 312.162 67.89 314.862 66.29C317.562 64.6567 320.679 63.84 324.212 63.84C326.446 63.84 328.512 64.14 330.412 64.74C332.312 65.34 333.979 66.09 335.412 66.99L332.562 73.84C329.929 71.84 327.229 70.84 324.462 70.84C322.596 70.84 320.846 71.3567 319.212 72.39C317.579 73.4233 316.279 74.84 315.312 76.64C314.346 78.4067 313.862 80.3733 313.862 82.54C313.862 84.9067 314.312 86.99 315.212 88.79C316.112 90.5567 317.396 91.94 319.062 92.94C320.729 93.94 322.679 94.44 324.912 94.44C326.712 94.44 328.329 94.1567 329.762 93.59C331.196 92.99 332.329 92.29 333.162 91.49L336.162 97.99ZM343.676 82.69C343.676 79.3567 344.509 76.24 346.176 73.34C347.876 70.44 350.159 68.14 353.026 66.44C355.926 64.7067 359.059 63.84 362.426 63.84C365.792 63.84 368.909 64.7067 371.776 66.44C374.676 68.14 376.976 70.44 378.676 73.34C380.409 76.24 381.276 79.3567 381.276 82.69C381.276 86.09 380.409 89.2233 378.676 92.09C376.976 94.9567 374.676 97.24 371.776 98.94C368.909 100.607 365.792 101.44 362.426 101.44C359.026 101.44 355.892 100.607 353.026 98.94C350.159 97.24 347.876 94.9567 346.176 92.09C344.509 89.2233 343.676 86.09 343.676 82.69ZM351.176 82.69C351.176 84.8233 351.676 86.79 352.676 88.59C353.709 90.39 355.092 91.8233 356.826 92.89C358.592 93.9233 360.542 94.44 362.676 94.44C364.742 94.44 366.626 93.9233 368.326 92.89C370.026 91.8233 371.359 90.4067 372.326 88.64C373.292 86.84 373.776 84.8567 373.776 82.69C373.776 80.49 373.276 78.49 372.276 76.69C371.276 74.89 369.909 73.4733 368.176 72.44C366.476 71.3733 364.576 70.84 362.476 70.84C360.376 70.84 358.459 71.3733 356.726 72.44C355.026 73.4733 353.676 74.89 352.676 76.69C351.676 78.49 351.176 80.49 351.176 82.69ZM410.654 73.14C407.454 71.3733 404.67 70.49 402.304 70.49C400.704 70.49 399.454 70.8067 398.554 71.44C397.687 72.0733 397.254 73.0233 397.254 74.29C397.254 75.4567 397.887 76.49 399.154 77.39C400.454 78.2567 402.17 79.09 404.304 79.89C406.037 80.5233 407.52 81.2567 408.754 82.09C409.987 82.89 411.004 84.0067 411.804 85.44C412.637 86.8733 413.054 88.69 413.054 90.89C413.054 92.79 412.554 94.5567 411.554 96.19C410.587 97.79 409.154 99.0733 407.254 100.04C405.354 100.973 403.087 101.44 400.454 101.44C398.254 101.44 396.07 101.123 393.904 100.49C391.737 99.8233 389.72 98.8233 387.854 97.49L391.054 91.84C392.32 92.7733 393.77 93.54 395.404 94.14C397.037 94.74 398.504 95.04 399.804 95.04C401.337 95.04 402.67 94.7233 403.804 94.09C404.937 93.4233 405.504 92.3567 405.504 90.89C405.504 88.99 403.72 87.34 400.154 85.94C398.054 85.1067 396.304 84.3067 394.904 83.54C393.504 82.7733 392.287 81.6733 391.254 80.24C390.254 78.8067 389.754 77.0067 389.754 74.84C389.754 71.6733 390.787 69.1233 392.854 67.19C394.954 65.2567 397.737 64.2067 401.204 64.04C403.937 64.04 406.22 64.3567 408.054 64.99C409.887 65.59 411.67 66.4567 413.404 67.59L410.654 73.14ZM453.254 64.24L439.454 89.59V101.04H432.204V89.59L418.654 64.24H427.604L436.054 81.24L444.304 64.24H453.254Z" fill="black"/>
</svg>
